<svg version="1" xmlns="http://www.w3.org/2000/svg" width="933.333" height="933.333" viewBox="0 0 700.000000 700.000000"><path d="M343.6.9c-.4.6-.4 5-.1 9.8.8 12 1.3 19 2 31.3.3 5.8.8 13.2 1 16.5.3 3.3.7 10 1 15 .2 4.9.7 12.1 1 16 .2 3.8.7 11.3 1 16.5.4 5.2.8 12.1 1 15.3.4 4.9.2 5.8-1 5.3-1.8-.6-1.7-1.4-1.6 18.8 0 8.8-.1 15.7-.3 15.5-.3-.4-.7-3-2.1-14.4-1.1-9.3-1.5-12.4-2-19-.4-3.9-.8-7.9-1-9-.1-1.1-.6-5.6-1-10s-.9-8.7-1-9.5c-.2-.8-.6-5.1-1-9.5s-.9-8.7-1-9.5c-.2-.8-.6-5.1-1-9.5s-.9-8.9-1.1-10c-.2-1.1-.7-5.4-1-9.5-.9-10.5-.9-10.5-2.5-10.8-1-.2-1.5.8-1.7 3-.2 1.7-2.7 10.4-5.6 19.3-4.6 13.7-5.5 17.6-6 26-.8 12.4-1.6 23-2.1 27-.9 6.5-1.8 29.7-1.8 42.5.1 7.4.2 20.7.2 29.5s-.1 19.4-.4 23.5c-.9 15.4-1.7 26.5-2 27-.1.3-.6 4.7-.9 9.7-.4 5.1-.9 10.3-1.1 11.5-.3 2.1-.7 4.8-2.1 15.5-.2 1.8-.6 4.8-.8 6.5-.3 1.8-1 7.3-1.6 12.3-.6 4.9-1.3 10.6-1.5 12.5-1.7 12.2-2.4 25.3-2.5 50.7-.2 21.9-.3 21.5 8.3 27.4 11.2 7.7 17.1 18.4 18.3 33.1.3 4.6.8 8.5.9 8.9.8 1.1 1.9 15.9 1.9 23.9.1 10.7-1.1 23.6-2.4 26-.5.9-.6 2-.3 2.4.3.3.1.6-.5.6-.7 0-1.3-1-1.3-2.3-.2-2.6-.5-4.9-1.4-10.2-.4-2.2-1-6-1.4-8.4l-.6-4.4-6 8.1c-7 9.6-7.9 12.2-6 17.7 5.8 17.2 7.6 55.3 3.9 79.6-.4 2.3.7 9.6 3.1 20.4 2 9.2 3.8 17.5 4 18.4.2.9 1.3 5.6 2.3 10.6 1.1 4.9 2.7 12.4 3.6 16.5 4 18.7 11 46.5 15.3 61 1.4 4.7 2.8 9.5 3.1 10.7 1.7 5.5 3.6 1.9 4.7-8.6.3-3.1.8-6.3 1-7.1.2-.8.6-3.8 1-6.5.3-2.8.7-6.1 1-7.5.2-1.4.7-4.8 1-7.5.3-2.8.8-6.1 1-7.5.2-1.4 1.3-9.5 2.5-18s2.3-16.6 2.5-18c.9-6 1.5-10.9 2-16 .4-3 .8-6.2 1-7 .2-.8.7-4.4 1-8 .4-3.6.8-7.2 1-8 .2-1.3 1-8.4 2-18.5.2-1.7.8-6.8 1.4-11.5.6-4.7 1.3-11.7 1.7-15.5.3-3.9.8-7.8.9-8.7.2-.9.6-4.9 1-9 .8-8.5 1.2-12.9 2.2-21.8 1.3-11.5 1.1-12.4-4.6-18.6-6.3-6.9-9.2-12.5-11.6-22.4-1.9-7.7-3-10.3-3.1-7.2-.2 3.1-1.3 13.1-1.8 15.4-.3 1.3-.8 4.5-1.2 7.3-.3 2.7-.7 5.9-.9 7-.1 1.1-.3 2.6-.4 3.3-.2 2.2-2.1.2-1.9-2.1 0-1.2-.2-5.2-.7-8.9-2.2-20 .5-35.8 10.1-59.1 4.5-11 6.2-13.9 14.3-23.8l4.3-5.4-.6-11.5c-.4-6.4-.8-12.5-1-13.6-.2-1.1-.7-7.1-1.1-13.4-.3-6.3-.8-13.1-1-15-.2-1.9-.6-8.2-1-14-.4-5.7-.8-11.1-1-12-.1-.8-.6-6-1-11.5s-.8-11.4-1-13c-.1-1.7-.6-6.6-.9-11-.4-4.4-.9-9.1-1.1-10.5-.3-2.2-1.2-13.5-2-24.5-.2-2.2-.5-7.2-.9-11-1.4-17-2.4-33.6-3.1-55-.6-16.6-.8-21.1-2-40.5-1-15.3-3.6-37.3-5.9-48.5-.5-2.7-1.5-9.1-2.1-14-.7-5.3-1.6-11.5-2.1-13.9-.2-1.1-.6-4.2-.9-7-.3-2.8-.8-6.2-1-7.6-.2-1.4-1.1-8.1-2-14.9-1.6-12.7-2.6-16.3-3.9-14.2zM532.1 62.2c-.5 1.3-5.7 14.2-11.6 28.8-5.9 14.6-10.8 27.2-11 28.1-.2.9-1.2 3.8-2.4 6.5-1.1 2.7-4.1 11.6-6.6 19.9-8.5 27.4-16.6 52.8-23.9 74.5-14.1 41.9-17.5 52.6-18.1 57-.3 2.5-1 6.1-1.5 8-.4 1.9-1.1 5.9-1.4 8.9-.4 2.9-.8 5.6-1 6-.2.3-.7 3-1.1 6-.4 3-.9 6.3-1.1 7.5-.2 1.1-.6 3.6-.9 5.6-.3 2-.7 4.5-.9 5.5-2.4 12.8-5.7 38-5.2 39.8.4 1.2 2.8 3.8 5.4 5.8l4.7 3.6 2.4-5.6c5.7-13 9.2-20.3 9.7-19.9.2.3-1.4 7.8-3.6 16.6l-4.1 16.1 2.1 4.8c3 7.2 4.8 16.9 4.4 25.2-.2 4.1.1 7 .5 6.5.5-.5 2.3-3.6 4.1-6.9 8.9-16.2 7.6-14.7 16.3-19.2 8.4-4.4 14.3-10.1 29.6-28.8l11.4-13.8-4.6.6-4.5.6-.1-13.2c-.1-7.3-.5-22.2-.8-33.2-.8-24.5-1-110.1-.2-120.8.5-7.5-.2-10-1.7-5.5-.4 1.3-1.9 5-3.4 8.3-1.5 3.3-6.9 15.8-12 27.7-5.2 12-9.7 21.8-10.1 21.8-.4 0-.4-1.2.1-2.8 1-3.3 8.1-29 8.5-31.2.2-.8 2.3-8.9 4.8-18 5.8-21.2 11.8-43.1 12.2-45 .2-.8 2.8-11.2 5.8-23 3.1-11.8 5.8-23.3 6.1-25.5.4-2.2 1.3-7.6 2.1-12s1.8-9.8 2.1-12c.3-2.2.8-4.3 1.1-4.8.2-.4.2-.7-.2-.7-.3 0-.9 1-1.4 2.2zM161.2 69.2c-.2 9.1 0 40.5.3 44.3.7 9 1.6 18.1 2 19.5.2.8.7 3.5 1 6 .5 3.9 3.8 20.4 5 25 1.2 4.9 4.7 16.3 6.4 21.2 1.1 3.2 1.6 5.8 1.2 5.8-.7 0-4.3-7.8-10.4-22.7-1.2-2.9-2.8-5.5-3.6-5.8-1.9-.7-.6 16.2 1.9 23.5 3.2 9.5 13.6 37.6 15 40.5 2.3 5 10.8 28 10.4 28.4-.5.5.7 2.3-11.9-16.9-6-9.1-11.7-17.6-12.8-19l-1.9-2.5.5 12.5c.6 12.5.8 13.8 2 17.5.3 1.1.8 3.1 1.1 4.5.2 1.4 1.1 5.9 1.9 10 .9 4.1 1.9 10.9 2.2 15 .4 4.1.9 7.8 1.2 8.3.2.4.6 15.9.9 34.5.2 18.5.6 34.8.9 36.2.2 1.4.7 4 1 5.8 1.5 9.2 7.5 20.4 14.3 27 2 1.9 7.3 6.2 11.7 9.5 10.2 7.7 18.1 15.2 20.7 19.9 2.7 4.8 5.1 3.6 4.1-2.1-2.3-13.6.8-26.5 9.4-39.3 1.6-2.4 3.6-5.9 4.4-7.8 1.5-3.7 1.9-16.8.7-23-.4-1.9-1-5.8-1.3-8.5-.3-2.8-.8-6.1-1-7.5-.3-1.4-.7-4.8-1-7.5-.4-2.8-.8-5.7-1-6.5-.2-.8-.7-3.1-1-5-.8-4.7-4.3-15.6-6.6-20.4-1.5-3.2-5.2-14.9-6.4-20.6-3.2-15-24.6-89.7-40.2-140-4.7-15.1-8.9-28.9-9.3-30.5-.4-1.7-2.9-9.7-5.4-17.9-2.5-8.1-4.6-15-4.6-15.2 0-.2-.4-.4-.8-.4-.5 0-.9 1.9-1 4.2z"/><path d="M535.4 354.3c-1.7 1.7-5.3 6.1-8.1 9.7-6.6 8.4-13.5 14.9-19.8 18.5-15.3 8.6-19 11.1-24.3 16.3-7.4 7.5-12.7 15.5-17.5 26.7-8.1 19-9.9 22.7-17.8 35.6-5.4 8.8-5.9 10.1-6.4 17-.3 4.1-.7 9.9-1 12.9-.2 3-.7 12-1.1 20l-.7 14.5 2.5-3c1.3-1.7 7.3-9.8 13.2-18 6-8.3 11.3-15.5 11.8-16 .8-.9-3.1 11.3-5.2 16-.5 1.1-2.8 6.5-5.1 12-2.2 5.5-5.3 11.1-6.8 12.5-5.6 5.3-9.1 12.3-10.5 21.3-1 6.2-1.6 10-2 13.7-.4 3.2-1.2 8.9-2.2 15-1.4 9-2.4 21-1.7 21 .4 0 1.9-3.3 11.6-24 5-10.9 10.1-21.7 17.3-36.9 3.5-7.3 6.4-13.5 6.4-13.7 0-.2 3.5-7.5 7.9-16.2 8.4-17 11.5-24.6 22.1-55.2 10.3-29.6 13.1-36.9 27.7-70.9 7.4-17.2 13.2-31.5 13-31.7-.2-.2-1.7 1.1-3.3 2.9zM163.3 376.5c.3 1.1 6.9 18.6 14.7 39 16.1 42.2 22.1 57.8 35.4 93.2 11.1 29.3 14.8 37.7 20.6 46.2 4.7 7 27.3 35.5 28.8 36.5 1.1.6.8-3.2-1-13.2-.8-5.1-1.8-7.3-4.9-10.8-6.4-7.4-11.3-17.3-15.1-30.4-.6-1.9-1.3-4-1.8-4.5-1.3-1.8-2.9-7.5-2.1-7.5.5 0 4.6 6.3 9.1 14s8.4 14 8.7 14c.5 0-.3-8.5-1.7-17-.5-3-1.2-7.8-1.5-10.5-.8-6.6-1.5-11.4-2-14.5-.3-1.4-.7-4.8-1.1-7.5-.3-2.8-.8-5.7-.9-6.6-.2-.9-.6-4-1-6.9-.4-2.9-.8-6-1-6.9-.9-5-1.8-12.8-1.6-13.8.1-.7-2.8-4.3-6.4-8-3.6-3.8-6.8-7.9-7.1-9.3-5-22.6-18.2-41.6-37.2-53.8-6.2-3.9-22.6-16.2-29.6-22.1-1.8-1.5-1.9-1.5-1.3.4z"/></svg>